<?xml version="1.0" encoding="utf-8"?>
<!-- Generator: Adobe Illustrator 21.0.0, SVG Export Plug-In . SVG Version: 6.00 Build 0)  -->
<svg version="1.1" id="Layer_1" xmlns="http://www.w3.org/2000/svg" xmlns:xlink="http://www.w3.org/1999/xlink" x="0px" y="0px"
	 viewBox="0 0 210 126" style="enable-background:new 0 0 210 126;" xml:space="preserve">
<style type="text/css">
	.st0{fill:url(#SVGID_1_);}
	.st1{fill:url(#SVGID_2_);}
	.st2{fill:url(#SVGID_3_);}
	.st3{fill:url(#SVGID_4_);}
</style>
<g>
	<linearGradient id="SVGID_1_" gradientUnits="userSpaceOnUse" x1="94.9652" y1="95.4581" x2="134.2849" y2="95.4581">
		<stop  offset="0" style="stop-color:#3FA1FF"/>
		<stop  offset="1" style="stop-color:#2A73FF"/>
	</linearGradient>
	<path class="st0" d="M120,78l-22.7,23.3c-3.2,3.3-3.1,8.5,0.2,11.7c1.6,1.6,3.7,2.4,5.8,2.4c2.2,0,4.3-0.8,5.9-2.5l22.7-23.3
		c3.2-3.3,3.1-8.5-0.2-11.7C128.5,74.6,123.2,74.7,120,78z"/>
	<linearGradient id="SVGID_2_" gradientUnits="userSpaceOnUse" x1="22.9816" y1="65.1508" x2="151.7954" y2="65.1508">
		<stop  offset="0" style="stop-color:#3FA1FF"/>
		<stop  offset="1" style="stop-color:#2A73FF"/>
	</linearGradient>
	<path class="st1" d="M149.8,15.8l-32.4,32.7c1.6,0.1,3.1,0.7,4.3,1.9c2.7,2.6,2.7,6.9,0,9.6L58.5,124c-1.3,1.3-3.1,2-4.8,2
		c-1.7,0-3.4-0.7-4.8-2c-1.8-1.7-2.4-4.2-1.8-6.4l35.6-36.3c1.9-2,1.9-5.1,0-7.1c-2-1.9-5.1-1.9-7,0L51.9,98.5L34.5,116
		c-1.3,1.3-3.1,2-4.8,2c-1.7,0-3.4-0.7-4.8-2c-2.6-2.6-2.7-6.9,0-9.6l63.3-63.9c2.6-2.7,6.9-2.7,9.6,0c1.3,1.3,2,3,2,4.7l40.5-40.9
		c2.6-2.7,6.9-2.7,9.6,0C152.4,8.9,152.5,13.2,149.8,15.8z"/>
	<linearGradient id="SVGID_3_" gradientUnits="userSpaceOnUse" x1="0.2497" y1="66.9922" x2="77.0462" y2="66.9922">
		<stop  offset="0" style="stop-color:#3FA1FF"/>
		<stop  offset="1" style="stop-color:#2A73FF"/>
	</linearGradient>
	<path class="st2" d="M75,30.2c-2.7-2.6-6.9-2.6-9.6,0L2.2,94.2c-2.6,2.7-2.6,6.9,0,9.6c1.3,1.3,3,2,4.8,2c1.7,0,3.5-0.7,4.8-2
		l63.3-63.9C77.7,37.1,77.7,32.9,75,30.2z"/>
	<linearGradient id="SVGID_4_" gradientUnits="userSpaceOnUse" x1="132.9538" y1="38.7313" x2="209.7504" y2="38.7313">
		<stop  offset="0" style="stop-color:#3FA1FF"/>
		<stop  offset="1" style="stop-color:#2A73FF"/>
	</linearGradient>
	<path class="st3" d="M207.7,2c-2.7-2.6-6.9-2.6-9.6,0l-63.3,63.9c-2.6,2.7-2.6,6.9,0,9.6c1.3,1.3,3,2,4.8,2c1.7,0,3.5-0.7,4.8-2
		l63.3-63.9C210.4,8.9,210.4,4.6,207.7,2z"/>
</g>
</svg>
